# xmcd CD database file
#
# Track frame offsets:
#	150
#	20322
#	36312
#	61107
#	76085
#	91747
#	115787
#	143037
#	163515
#	176580
#
# Disc length: 2608 seconds
#
# Revision: 0
# Processed by: cddbd v1.5.1PL2 Copyright (c) Steve Scherf et al.
# Submitted via: CDex 1.51
#
DISCID=6d0a2e0a
DTITLE=Chris Pati - Blufire
DYEAR=1996
DGENRE=Blues
TTITLE0=That Was Wrong
TTITLE1=Let The Blues Do The Talkin'
TTITLE2=Plaything
TTITLE3=N.Y.B. (New York Blues)
TTITLE4=Cruisin' For A Bluesin'
TTITLE5=Miss Me
TTITLE6=Welcome To Midnight
TTITLE7=Bluesman
TTITLE8=She Don't Love Me
TTITLE9=Sunrise Fire
EXTD=YEAR: 1996
EXTT0=
EXTT1=
EXTT2=
EXTT3=
EXTT4=
EXTT5=
EXTT6=
EXTT7=
EXTT8=
EXTT9=
PLAYORDER=
